<?xml version="1.0" standalone="no"?>
<!DOCTYPE svg PUBLIC "-//W3C//DTD SVG 20010904//EN"
 "http://www.w3.org/TR/2001/REC-SVG-20010904/DTD/svg10.dtd">
<svg version="1.0" xmlns="http://www.w3.org/2000/svg"
 width="81.000000pt" height="81.000000pt" viewBox="0 0 81.000000 81.000000"
 preserveAspectRatio="xMidYMid meet">
<metadata>
Created by potrace 1.14, written by Peter Selinger 2001-2017
</metadata>
<g transform="translate(0.000000,81.000000) scale(0.100000,-0.100000)"
fill="#000000" stroke="none">
<path d="M355 784 c-22 -13 -47 -27 -55 -31 -9 -5 -68 -39 -133 -76 l-117 -69
0 -209 c0 -170 3 -209 14 -209 7 0 25 -9 40 -21 14 -11 26 -17 26 -14 0 4 15
-4 34 -18 18 -15 36 -23 40 -20 3 4 6 1 6 -5 0 -7 4 -12 10 -12 5 0 39 -18 75
-40 36 -22 65 -37 65 -34 0 3 7 -2 16 -11 20 -20 19 -21 167 67 67 40 124 73
127 73 3 0 22 11 43 23 l37 24 0 202 0 203 -162 95 c-90 52 -170 97 -178 100
-9 3 -33 -5 -55 -18z"/>
</g>
</svg>
