<svg version="1.0" xmlns="http://www.w3.org/2000/svg" width="108" height="108" viewBox="0 0 81 81"><path d="M35.5 2.6c-2.2 1.3-4.7 2.7-5.5 3.1-.9.5-6.8 3.9-13.3 7.6L5 20.2v20.9C5 58.1 5.3 62 6.4 62c.7 0 2.5.9 4 2.1 1.4 1.1 2.6 1.7 2.6 1.4 0-.4 1.5.4 3.4 1.8 1.8 1.5 3.6 2.3 4 2 .3-.4.6-.1.6.5 0 .7.4 1.2 1 1.2.5 0 3.9 1.8 7.5 4s6.5 3.7 6.5 3.4c0-.3.7.2 1.6 1.1 2 2 1.9 2.1 16.7-6.7 6.7-4 12.4-7.3 12.7-7.3.3 0 2.2-1.1 4.3-2.3l3.7-2.4V20.3l-16.2-9.5c-9-5.2-17-9.7-17.8-10-.9-.3-3.3.5-5.5 1.8z"/></svg>